<svg version="1.1" xmlns="http://www.w3.org/2000/svg" viewBox="-903.2582495352697 -2216.033276138332 3936.685024345453 3229.403874281347"><desc>Created with Snap</desc><defs></defs><g><g transform="matrix(8.459,0,0,8.459,-657.3932,-2204.6753)">
<g id="gSkv251r1k5bc">
	<path d="M196.02133,47.02528C162.0565,63.37874,34.04472,181.23653,17.95026,220.8622
		C-23.53873,323.01114,64.3831,338.37173,131.90678,342.95166c83.79094,5.68329,233.84074-6.40137,262.61847-108.008
		C427.85785,117.2548,302.42114-4.2047,196.02133,47.02528z" fill="#e0aaff" style=""></path>
</g>


<desc>Created with Snap</desc><defs></defs></g><g><g transform="matrix(1.024,0,0,-1.024,0,0)"><path d="M171 654Q171 594 167 528Q164 463 159 401Q172 428 193 447Q214 467 239 479Q265 491 293 497Q321 503 347 503Q392 503 431 486Q471 470 500 438Q530 407 546 360Q563 314 563 254Q563 196 546 148Q529 100 495 65Q462 31 412 12Q363 -7 299 -7Q212 -7 162 28Q113 63 89 121Q65 180 59 256Q54 332 54 415Q54 499 57 567Q60 635 66 677Q72 715 86 731Q100 747 123 747Q140 747 150 739Q160 732 164 719Q169 706 170 689Q171 673 171 654ZM319 404Q290 404 263 394Q237 385 216 365Q196 345 184 314Q172 284 172 241Q172 165 209 125Q247 86 310 86Q336 86 363 93Q390 101 412 119Q434 138 448 169Q462 200 462 246Q462 287 450 317Q439 347 419 366Q399 386 373 395Q347 404 319 404ZM925 510Q931 524 943 533Q956 542 970 542Q983 542 995 533Q1007 525 1014 511Q1052 433 1089 342Q1126 252 1156 171Q1173 295 1193 421Q1213 547 1238 662Q1241 675 1247 683Q1253 692 1260 696Q1267 701 1274 703Q1282 705 1287 705Q1304 705 1315 695Q1326 686 1326 670Q1326 652 1320 606Q1314 561 1304 500Q1294 440 1281 372Q1269 304 1257 241Q1245 178 1234 126Q1223 74 1216 47Q1210 24 1198 12Q1186 1 1163 1Q1139 1 1122 22Q1106 44 1086 90Q1067 136 1040 207Q1013 279 970 379Q926 279 898 207Q871 135 851 89Q832 43 815 21Q798 0 775 0Q735 0 722 46Q714 73 703 124Q692 176 680 239Q669 302 657 369Q645 437 636 497Q627 557 621 602Q616 648 616 666Q616 683 627 694Q638 705 658 705Q672 705 685 696Q698 688 704 662Q728 547 746 421Q765 295 786 171Q817 244 848 326Q879 408 925 510ZM1822 -4Q1806 -4 1796 1Q1787 7 1782 16Q1777 25 1775 37Q1773 50 1772 64Q1747 33 1707 12Q1668 -9 1607 -9Q1568 -9 1527 2Q1487 14 1454 42Q1421 71 1400 119Q1379 167 1379 240Q1379 297 1393 347Q1407 397 1435 434Q1464 472 1507 494Q1550 516 1608 516Q1659 516 1699 497Q1739 479 1771 437Q1771 449 1772 461Q1773 474 1777 484Q1782 495 1792 501Q1802 508 1819 508Q1834 508 1847 496Q1860 484 1862 444Q1865 391 1866 349Q1868 307 1868 262Q1868 207 1867 161Q1866 115 1862 63Q1860 40 1856 26Q1853 13 1848 6Q1843 0 1836 -2Q1829 -4 1822 -4ZM1768 250Q1768 302 1752 335Q1737 368 1713 386Q1690 405 1663 412Q1636 419 1613 419Q1577 419 1551 406Q1526 393 1510 370Q1494 348 1486 317Q1479 287 1479 251Q1479 163 1517 121Q1556 79 1622 79Q1661 79 1688 92Q1716 106 1733 129Q1751 152 1759 183Q1768 215 1768 250ZM1991 58Q1990 94 1989 142Q1988 190 1987 246Q1987 302 1986 364Q1986 426 1986 491Q1986 562 1987 613Q1988 664 1992 697Q1997 730 2007 745Q2017 761 2035 761Q2052 761 2065 750Q2078 739 2080 699Q2084 627 2085 549Q2086 472 2086 397Q2086 352 2086 310Q2086 269 2085 228Q2084 188 2083 146Q2082 104 2080 59Q2079 35 2075 22Q2072 9 2066 2Q2060 -5 2052 -7Q2045 -8 2035 -8Q2017 -8 2005 4Q1993 17 1991 58ZM2215 58Q2214 94 2213 142Q2212 190 2211 246Q2211 302 2210 364Q2210 426 2210 491Q2210 562 2211 613Q2212 664 2216 697Q2221 730 2231 745Q2241 761 2259 761Q2276 761 2289 750Q2302 739 2304 699Q2308 627 2309 549Q2310 472 2310 397Q2310 352 2310 310Q2310 269 2309 228Q2308 188 2307 146Q2306 104 2304 59Q2303 35 2299 22Q2296 9 2290 2Q2284 -5 2276 -7Q2269 -8 2259 -8Q2241 -8 2229 4Q2217 17 2215 58Z" fill="#000000" style=""></path></g></g></g></svg>